<?xml version="1.0" standalone="no"?>
<!DOCTYPE svg PUBLIC "-//W3C//DTD SVG 20010904//EN"
 "http://www.w3.org/TR/2001/REC-SVG-20010904/DTD/svg10.dtd">
<svg version="1.0" xmlns="http://www.w3.org/2000/svg"
 width="512.000000pt" height="512.000000pt" viewBox="0 0 512.000000 512.000000"
 preserveAspectRatio="xMidYMid meet">

<g transform="translate(0.000000,512.000000) scale(0.100000,-0.100000)"
fill="#000000" stroke="none">
<path d="M2080 5089 c-114 -22 -229 -118 -271 -227 -17 -45 -23 -85 -27 -184
l-4 -128 171 0 171 0 0 89 c0 68 4 93 16 105 14 14 147 16 1314 16 1167 0
1300 -2 1314 -16 14 -14 16 -146 16 -1310 0 -874 -3 -1302 -10 -1315 -10 -17
-22 -19 -120 -19 l-110 0 0 -171 0 -171 148 4 c140 3 150 4 212 34 82 39 144
101 184 184 l31 65 0 1380 0 1380 -23 57 c-46 113 -159 205 -281 228 -67 13
-2666 12 -2731 -1z"/>
<path d="M1160 4196 c-109 -24 -190 -89 -236 -189 -26 -57 -29 -73 -32 -199
l-4 -138 166 0 165 0 3 103 3 102 1309 3 c961 1 1312 -1 1322 -9 12 -10 14
-227 12 -1323 l-3 -1311 -107 -3 -108 -3 0 -165 0 -166 143 4 c130 3 147 6
203 31 76 35 135 94 171 172 l28 60 0 1385 0 1385 -24 58 c-31 78 -110 157
-188 188 l-58 24 -1355 2 c-1041 1 -1368 -1 -1410 -11z"/>
<path d="M274 3320 c-87 -18 -178 -82 -226 -161 -49 -79 -48 -37 -48 -1483 0
-1098 3 -1360 14 -1401 32 -123 134 -219 260 -245 35 -7 484 -10 1411 -8
l1360 3 56 26 c109 52 177 138 198 253 15 83 15 2659 0 2742 -21 115 -89 201
-198 253 l-56 26 -1365 2 c-751 0 -1384 -3 -1406 -7z m2701 -1645 l0 -1320
-1320 0 -1320 0 -3 1310 c-1 721 0 1316 3 1323 3 10 273 12 1322 10 l1318 -3
0 -1320z"/>
</g>
</svg>
