<?xml version="1.0" standalone="no"?>
<!DOCTYPE svg PUBLIC "-//W3C//DTD SVG 20010904//EN"
 "http://www.w3.org/TR/2001/REC-SVG-20010904/DTD/svg10.dtd">
<svg version="1.0" xmlns="http://www.w3.org/2000/svg"
 width="512.000000pt" height="512.000000pt" viewBox="0 0 512.000000 512.000000"
 preserveAspectRatio="xMidYMid meet">

<g transform="translate(0.000000,512.000000) scale(0.100000,-0.100000)"
fill="#000000" stroke="none">
<path d="M2438 3620 c-174 -22 -385 -107 -518 -208 -202 -153 -326 -346 -406
-629 -3 -10 -146 -13 -671 -13 -625 0 -671 -2 -708 -19 -128 -58 -164 -223
-72 -328 67 -76 32 -73 780 -73 525 0 668 -3 671 -12 64 -227 139 -368 271
-507 96 -102 181 -164 310 -227 369 -179 787 -138 1115 112 72 54 185 174 233
246 54 81 116 215 142 305 l22 78 679 5 c608 4 682 7 709 22 125 69 152 231
57 331 -61 65 -20 62 -766 67 l-679 5 -22 78 c-26 90 -88 223 -142 305 -51 77
-171 201 -253 262 -73 54 -214 128 -295 154 -134 42 -328 62 -457 46z m257
-435 c238 -50 440 -252 490 -490 95 -454 -306 -855 -760 -760 -182 38 -352
170 -434 335 -94 192 -94 388 0 580 126 255 419 395 704 335z"/>
</g>
</svg>
