<?xml version="1.0" standalone="no"?>
<!DOCTYPE svg PUBLIC "-//W3C//DTD SVG 20010904//EN"
 "http://www.w3.org/TR/2001/REC-SVG-20010904/DTD/svg10.dtd">
<svg version="1.0" xmlns="http://www.w3.org/2000/svg"
 width="512.000000pt" height="512.000000pt" viewBox="0 0 512.000000 512.000000"
 preserveAspectRatio="xMidYMid meet">

<g transform="translate(0.000000,512.000000) scale(0.100000,-0.100000)"
fill="#000000" stroke="none">
<path d="M1205 4670 c-264 -69 -453 -254 -536 -520 -31 -97 -33 -290 -6 -390
72 -264 285 -474 545 -537 l72 -17 0 -646 0 -646 -70 -16 c-210 -50 -405 -208
-497 -405 -54 -116 -68 -182 -68 -323 0 -103 5 -138 24 -200 76 -246 249 -426
486 -506 115 -39 286 -45 405 -15 144 35 240 91 350 201 78 77 104 111 138
180 56 112 82 219 82 335 0 219 -70 387 -225 540 -64 64 -100 90 -175 128 -52
26 -128 55 -167 65 l-73 17 0 645 0 645 73 17 c205 49 395 201 489 390 55 111
69 170 75 303 7 147 -14 244 -79 375 -34 69 -60 103 -138 180 -77 78 -111 104
-180 138 -47 23 -121 51 -164 62 -104 26 -263 26 -361 0z m304 -205 c93 -22
177 -71 251 -145 114 -114 167 -251 157 -405 -13 -192 -125 -362 -291 -443
-87 -43 -139 -55 -236 -55 -242 -1 -447 153 -516 388 -21 70 -23 208 -4 275
77 281 359 451 639 385z m16 -2777 c22 -5 67 -23 101 -40 262 -128 369 -460
232 -722 -41 -78 -146 -183 -224 -224 -262 -137 -594 -30 -722 232 -43 87 -55
139 -55 236 -1 148 51 275 155 378 82 83 193 138 313 155 40 6 151 -2 200 -15z"/>
<path d="M3025 4452 c-63 -47 -452 -444 -460 -470 -18 -59 -3 -79 237 -319
128 -128 246 -237 262 -243 81 -30 164 66 125 143 -6 12 -68 80 -138 150
l-126 129 150 -5 c165 -5 225 -18 338 -71 149 -69 275 -193 347 -341 54 -111
71 -181 77 -322 l6 -122 -29 -6 c-153 -34 -267 -92 -368 -186 -124 -115 -198
-245 -230 -401 -53 -255 29 -508 224 -691 256 -241 628 -270 923 -73 113 76
193 167 252 291 53 110 75 205 75 325 0 353 -245 657 -590 731 l-48 10 -5 142
c-4 114 -10 159 -31 232 -89 298 -305 533 -587 636 -121 44 -212 59 -367 59
l-135 0 130 133 c71 72 133 143 137 155 20 63 -23 130 -91 139 -31 4 -45 -1
-78 -25z m1100 -1710 c253 -92 401 -362 340 -621 -41 -174 -173 -322 -340
-383 -73 -26 -209 -35 -287 -19 -181 38 -343 184 -399 360 -29 91 -29 231 0
322 53 168 198 305 374 354 76 21 235 15 312 -13z"/>
</g>
</svg>
