<?xml version="1.0" standalone="no"?>
<!DOCTYPE svg PUBLIC "-//W3C//DTD SVG 20010904//EN"
 "http://www.w3.org/TR/2001/REC-SVG-20010904/DTD/svg10.dtd">
<svg version="1.0" xmlns="http://www.w3.org/2000/svg"
 width="50.000000pt" height="50.000000pt" viewBox="0 0 50.000000 50.000000"
 preserveAspectRatio="xMidYMid meet">

<g transform="translate(0.000000,50.000000) scale(0.100000,-0.100000)"
fill="#000000" stroke="none">
<path d="M97 452 c-22 -25 -21 -45 3 -67 18 -16 20 -31 20 -127 0 -65 4 -108
10 -108 6 0 10 16 10 35 l0 36 29 -22 c32 -23 131 -39 131 -22 0 6 -23 13 -51
15 -72 7 -101 38 -107 115 -3 49 -1 61 17 77 26 23 27 48 3 69 -24 22 -45 21
-65 -1z"/>
<path d="M337 212 c-22 -24 -21 -45 1 -65 24 -22 45 -21 65 1 22 24 21 45 -1
65 -24 22 -45 21 -65 -1z"/>
<path d="M97 112 c-22 -24 -21 -45 1 -65 24 -22 45 -21 65 1 22 24 21 45 -1
65 -24 22 -45 21 -65 -1z"/>
</g>
</svg>
