<?xml version="1.0" standalone="no"?>
<!DOCTYPE svg PUBLIC "-//W3C//DTD SVG 20010904//EN"
 "http://www.w3.org/TR/2001/REC-SVG-20010904/DTD/svg10.dtd">
<svg version="1.0" xmlns="http://www.w3.org/2000/svg"
 width="24.000000pt" height="24.000000pt" viewBox="0 0 24.000000 24.000000"
 preserveAspectRatio="xMidYMid meet">

<g transform="translate(0.000000,24.000000) scale(0.100000,-0.100000)"
fill="#000000" stroke="none">
<path d="M170 210 c-13 -8 -12 -13 8 -32 19 -20 24 -21 32 -8 22 33 -7 62 -40
40z"/>
<path d="M92 137 l-42 -43 23 -22 24 -22 42 50 c35 42 41 53 31 65 -19 23 -33
18 -78 -28z"/>
<path d="M30 46 c0 -9 7 -16 16 -16 9 0 14 5 12 12 -6 18 -28 21 -28 4z"/>
</g>
</svg>
