<?xml version="1.0" standalone="no"?>
<!DOCTYPE svg PUBLIC "-//W3C//DTD SVG 20010904//EN"
 "http://www.w3.org/TR/2001/REC-SVG-20 010904/DTD/svg10.dtd">
<svg version="1.0" xmlns="http://www.w3.org/2000/svg"
 width="24.000000pt" height="24.000000pt" viewBox="0 0 24.000000 24.000000"
 preserveAspectRatio="xMidYMid meet">

<g transform="translate(0.000000,24.000000) scale(0.100000,-0.100000)"
fill="#000000" stroke="none">
<path d="M44 207 c-3 -8 -4 -52 -2 -98 l3 -84 75 0 75 0 3 69 c3 63 1 71 -24
97 -23 24 -36 29 -76 29 -31 0 -50 -5 -54 -13z m86 -32 c0 -20 5 -25 25 -25
24 0 25 -3 25 -55 l0 -55 -60 0 -60 0 0 80 0 80 35 0 c31 0 35 -3 35 -25z"/>
</g>
</svg>
