<?xml version="1.0" standalone="no"?>
<!DOCTYPE svg PUBLIC "-//W3C//DTD SVG 20010904//EN"
 "http://www.w3.org/TR/2001/REC-SVG-20010904/DTD/svg10.dtd">
<svg version="1.0" xmlns="http://www.w3.org/2000/svg"
 width="50.000000pt" height="50.000000pt" viewBox="0 0 50.000000 50.000000"
 preserveAspectRatio="xMidYMid meet">

<g transform="translate(0.000000,50.000000) scale(0.100000,-0.100000)"
fill="#000000" stroke="none">
<path d="M240 430 c0 -27 5 -50 10 -50 6 0 10 18 10 41 0 41 0 41 33 34 155
-33 219 -223 114 -342 -101 -115 -283 -88 -348 52 -32 68 -19 165 28 217 9 10
14 21 10 24 -21 22 -77 -91 -77 -156 0 -49 29 -122 63 -159 33 -36 115 -71
167 -71 52 0 134 35 167 71 34 37 63 110 63 159 0 52 -35 134 -71 167 -32 29
-107 63 -141 63 -27 0 -28 -2 -28 -50z"/>
<path d="M164 325 c63 -99 70 -106 90 -103 12 2 22 12 24 24 3 20 -4 27 -103
90 l-30 19 19 -30z"/>
</g>
</svg>
