<?xml version="1.0" encoding="UTF-8"?>
<!DOCTYPE svg PUBLIC "-//W3C//DTD SVG 1.1//EN" "http://www.w3.org/Graphics/SVG/1.1/DTD/svg11.dtd">
<svg xmlns="http://www.w3.org/2000/svg" version="1.1" width="30px" height="30px" style="shape-rendering:geometricPrecision; text-rendering:geometricPrecision; image-rendering:optimizeQuality; fill-rule:evenodd; clip-rule:evenodd" xmlns:xlink="http://www.w3.org/1999/xlink">
<g><path style="opacity:0.9" fill="#fefffe" d="M 29.5,14.5 C 29.5,17.1667 29.5,19.8333 29.5,22.5C 28.7109,22.7828 28.0442,23.2828 27.5,24C 18.8333,24.6667 10.1667,24.6667 1.5,24C 0.955796,23.2828 0.28913,22.7828 -0.5,22.5C -0.5,19.8333 -0.5,17.1667 -0.5,14.5C 1.9552,13.2135 3.9552,11.3802 5.5,9C 9.18534,6.85366 13.1853,5.35366 17.5,4.5C 22.9809,4.31177 25.9809,6.97843 26.5,12.5C 27.5178,13.1925 28.5178,13.8592 29.5,14.5 Z M 16.5,18.5 C 15.1667,21.1667 13.8333,21.1667 12.5,18.5C 13.1646,16.6309 13.8313,14.6309 14.5,12.5C 15.1687,14.6309 15.8354,16.6309 16.5,18.5 Z"/></g>
</svg>
